<svg width="17" height="17" viewBox="0 0 17 17" fill="none" xmlns="http://www.w3.org/2000/svg">
<path fill-rule="evenodd" clip-rule="evenodd" d="M8.61806 4.95835C8.94406 4.95835 9.20834 5.20872 9.20834 5.51756L9.20834 9.24563C9.20834 9.39395 9.14615 9.53618 9.03545 9.64106L6.67433 11.8779C6.44382 12.0963 6.07007 12.0963 5.83956 11.8779C5.60904 11.6595 5.60904 11.3054 5.83956 11.0871L8.02779 9.014V5.51756C8.02779 5.20872 8.29206 4.95835 8.61806 4.95835Z" fill="#0063A9"/>
<path fill-rule="evenodd" clip-rule="evenodd" d="M8.50001 2.50643C6.9635 2.50643 4.86353 2.64744 3.55226 2.74902C3.12103 2.78243 2.78242 3.12105 2.74901 3.55228C2.64742 4.86355 2.50642 6.96352 2.50642 8.50002C2.50642 10.0365 2.64742 12.1365 2.74901 13.4478C2.78242 13.879 3.12103 14.2176 3.55226 14.251C4.86353 14.3526 6.9635 14.4936 8.50001 14.4936C10.0365 14.4936 12.1365 14.3526 13.4477 14.251C13.879 14.2176 14.2176 13.879 14.251 13.4478C14.3526 12.1365 14.4936 10.0365 14.4936 8.50002C14.4936 6.96352 14.3526 4.86355 14.251 3.55228C14.2176 3.12105 13.879 2.78243 13.4477 2.74902C12.1365 2.64744 10.0365 2.50643 8.50001 2.50643ZM3.46809 1.66254C4.77997 1.5609 6.91721 1.41669 8.50001 1.41669C10.0828 1.41669 12.22 1.5609 13.5319 1.66254C14.4986 1.73743 15.2626 2.50144 15.3375 3.46811C15.4391 4.77999 15.5833 6.91723 15.5833 8.50002C15.5833 10.0828 15.4391 12.2201 15.3375 13.5319C15.2626 14.4986 14.4986 15.2626 13.5319 15.3375C12.22 15.4391 10.0828 15.5834 8.50001 15.5834C6.91721 15.5834 4.77997 15.4391 3.46809 15.3375C2.50142 15.2626 1.73741 14.4986 1.66252 13.5319C1.56089 12.2201 1.41667 10.0828 1.41667 8.50002C1.41667 6.91723 1.56089 4.77999 1.66252 3.46811C1.73741 2.50144 2.50142 1.73743 3.46809 1.66254Z" fill="#0063A9"/>
</svg>
